<svg xmlns="http://www.w3.org/2000/svg" version="1.1" xmlns:xlink="http://www.w3.org/1999/xlink" viewBox="0 0 200 200"><rect width="200" height="200" fill="url('#gradient')"></rect><defs><linearGradient id="gradient" gradientTransform="rotate(45 0.5 0.5)"><stop offset="0%" stop-color="#000000"></stop><stop offset="100%" stop-color="#000000"></stop></linearGradient></defs><g><g fill="#9900ff" transform="matrix(9.299697275479314,0,0,9.299697275479314,1.4690025197388934,149.1056025232725)" stroke="#007aff" stroke-width="0.2"><path d="M20.27-5.20L20.27-5.20Q20.27-3.64 19.63-2.40Q18.98-1.15 17.80-0.48Q16.62 0.20 15.11 0.20L15.11 0.20Q13.70 0.20 12.54-0.56Q11.38-1.31 10.59-2.71L10.59-2.71Q9.75-1.27 8.60-0.54Q7.46 0.20 6.07 0.20L6.07 0.20Q3.75 0.20 2.33-1.31Q0.92-2.81 0.92-5.36L0.92-5.36Q0.92-6.91 1.56-8.16Q2.21-9.40 3.37-10.08Q4.54-10.76 6.05-10.76L6.05-10.76Q8.89-10.76 10.59-7.99L10.59-7.99Q11.40-9.35 12.56-10.05Q13.72-10.76 15.13-10.76L15.13-10.76Q17.45-10.76 18.86-9.25Q20.27-7.73 20.27-5.20ZM4.10-5.20L4.10-5.20Q4.10-3.94 4.70-3.19Q5.29-2.44 6.29-2.44L6.29-2.44Q7.64-2.44 8.56-4.17L8.56-4.17Q8.93-4.85 8.96-5.26L8.96-5.26L8.96-5.49Q8.92-5.93 8.52-6.61L8.52-6.61Q7.62-8.13 6.27-8.13L6.27-8.13Q5.29-8.13 4.70-7.37Q4.10-6.61 4.10-5.20ZM17.08-5.36L17.08-5.36Q17.08-6.58 16.49-7.35Q15.91-8.13 14.91-8.13L14.91-8.13Q13.56-8.13 12.67-6.61L12.67-6.61Q12.27-5.93 12.22-5.49L12.22-5.49L12.22-5.26Q12.27-4.77 12.71-3.99Q13.16-3.21 13.72-2.83Q14.28-2.44 14.89-2.44L14.89-2.44Q15.89-2.44 16.48-3.19Q17.08-3.95 17.08-5.36Z"></path></g></g></svg>